<?xml version="1.0" standalone="no"?>
<!DOCTYPE svg PUBLIC "-//W3C//DTD SVG 1.1//EN" "http://www.w3.org/Graphics/SVG/1.1/DTD/svg11.dtd" >
<svg>
<metadata>
Created by FontForge 20090622 at Wed Dec 11 10:37:00 2019
 By deploy user
2006, 2010, 2011&#194;&#169; Steve Ferrera. All Rights Reserved.
</metadata>
<defs>
<font id="MarketDeco" horiz-adv-x="240" >
  <font-face 
    font-family="Market Deco"
    font-weight="400"
    font-stretch="normal"
    units-per-em="2048"
    panose-1="2 0 0 0 0 0 0 0 0 0"
    ascent="1638"
    descent="-410"
    x-height="1479"
    cap-height="1472"
    bbox="120 -351 1661 1866"
    underline-thickness="150"
    underline-position="-142"
    unicode-range="U+0020-U+F005"
  />
<missing-glyph horiz-adv-x="1264" 
d="M120 0v1280h1024v-1280h-1024zM152 32h960v1216h-960v-1216z" />
    <glyph glyph-name=".notdef" horiz-adv-x="1264" 
d="M120 0v1280h1024v-1280h-1024zM152 32h960v1216h-960v-1216z" />
    <glyph glyph-name="NULL" 
 />
    <glyph glyph-name="nonmarkingreturn" 
 />
    <glyph glyph-name="space" unicode=" " horiz-adv-x="700" 
 />
    <glyph glyph-name="space" unicode="&#xa0;" horiz-adv-x="700" 
 />
    <glyph glyph-name="exclam" unicode="!" horiz-adv-x="432" 
d="M120 1472h192v-1024h-192v1024zM120 224h192v-224h-192v224z" />
    <glyph glyph-name="quotedbl" unicode="&#x22;" horiz-adv-x="1008" 
d="M238 1635h208v-30l-208 -502h-118v30zM680 1636h208v-29l-208 -503h-118v30z" />
    <glyph glyph-name="numbersign" unicode="#" horiz-adv-x="1328" 
d="M483 1504h160l-59 -480h254l61 480h160l-57 -480h206v-128h-226l-36 -320h198v-128h-224l-64 -480h-160l64 480h-256l-64 -480h-160l64 480h-224v128h251l37 320h-224v128h240zM568 896l-37 -320h248l40 320h-251z" />
    <glyph glyph-name="dollar" unicode="$" horiz-adv-x="935" 
d="M562 803l71 -37q44 -26 86.5 -66t68 -100t27.5 -142q0 -75 -32 -144t-89 -122q-58 -53 -132 -83v-109h-170v78q-78 2 -137 22q-65 21 -135 73v222q39 -41 64 -58.5t61 -37t80 -32.5q34 -11 67 -13v437q-56 28 -94 53q-45 27 -86 67t-65.5 94.5t-24.5 126.5q3 72 35 134.5
t87 110t126 74.5q11 4 22 7v116h170v-100q34 -5 64 -13q48 -15 106 -51v-186q-31 21 -45 26.5t-39 20t-58 24.5l-28 6v-398zM392 1163q-9 -6 -17 -14q-60 -54 -60 -126q2 -70 50 -110q12 -10 27 -21v271zM562 320q55 62 55 147q0 72 -50 117q-2 2 -5 4v-268z" />
    <glyph glyph-name="percent" unicode="%" horiz-adv-x="1444" 
d="M526 45l-168 1l595 1383l168 -1zM1119 59q-39 0 -76 22.5t-64 61.5q-31 45 -48 109.5t-17 140.5t17 140t48 109q27 39 64 61.5t76 22.5t76 -22.5t64 -61.5q32 -45 48.5 -109t16.5 -140t-16.5 -140.5t-48.5 -109.5q-28 -39 -64.5 -61.5t-75.5 -22.5zM1119 184q40 0 65 45
q17 29 26.5 72.5t9.5 90.5q0 46 -9.5 90t-26.5 74q-25 45 -65 45t-65 -45q-16 -30 -26 -74t-10 -90q0 -47 10 -90.5t26 -72.5q26 -45 65 -45zM325 1415q39 0 76 -22.5t64 -61.5q31 -45 48 -109.5t17 -140.5t-17 -140t-48 -109q-27 -39 -64 -61.5t-76 -22.5t-76 22.5
t-64 61.5q-32 45 -48.5 109t-16.5 140t16.5 140.5t48.5 109.5q28 39 64.5 61.5t75.5 22.5zM325 1290q-40 0 -66 -45q-16 -29 -25.5 -72.5t-9.5 -90.5q0 -46 9 -90t26 -74q26 -45 66 -45t65 45q16 30 26 74t10 90q0 47 -10 90.5t-26 72.5q-26 45 -65 45z" />
    <glyph glyph-name="ampersand" unicode="&#x26;" horiz-adv-x="1278" 
d="M500 588q-93 -76 -128 -130t-35 -113q0 -64 42 -108t104 -44q91 0 195 128l-178 267v0zM558 886l46 50q54 54 54 128q0 40 -26 65.5t-68 25.5q-44 0 -70.5 -26.5t-26.5 -70.5q0 -34 17.5 -72t65.5 -108zM1084 673q-8 -30 -15 -51.5t-16 -43.5l-20 -48l-26.5 -62
l-24.5 -57t-17 -33.5l-15 -23.5t-17 -25l225 -321h-267l-102 145q-155 -161 -328 -161q-72 0 -134 26t-107.5 72.5t-72.5 109.5t-27 135q0 53 14 102t46 97t82.5 99.5t124.5 111.5q-126 167 -126 317q0 58 24 108.5t65 87.5t96.5 59t119.5 22q138 0 220.5 -75t82.5 -196
q0 -68 -26 -126t-90 -131q-31 -34 -48 -51t-45 -41l143 -201q38 58 72 155h209z" />
    <glyph glyph-name="quotesingle" unicode="'" horiz-adv-x="566" 
d="M238 1635h208v-30l-208 -502h-118v30z" />
    <glyph glyph-name="parenleft" unicode="(" horiz-adv-x="784" 
d="M536 1504l128 -160q-320 -212 -336 -551v-114q16 -339 336 -551l-128 -160q-416 292 -416 768t416 768z" />
    <glyph glyph-name="parenright" unicode=")" horiz-adv-x="784" 
d="M664 736q0 -476 -416 -768l-128 160q320 212 336 551v114q-16 339 -336 551l128 160q416 -292 416 -768z" />
    <glyph glyph-name="asterisk" unicode="*" horiz-adv-x="878" 
d="M500 1527v-247l12 -12l198 118l48 -72l-168 -130v-64l168 -120l-48 -85l-198 124l-12 -13v-264h-109v264l-13 13l-203 -124l-55 82l182 123v64l-182 130l55 72l203 -118l13 12v247h109z" />
    <glyph glyph-name="plus" unicode="+" horiz-adv-x="1096" 
d="M445 1042h207v-325h324v-206h-324v-325h-207v325h-325v206h325v325z" />
    <glyph glyph-name="comma" unicode="," horiz-adv-x="592" 
d="M248 225h224v-32l-224 -544h-128v32z" />
    <glyph glyph-name="hyphen" unicode="-" horiz-adv-x="903" 
d="M120 800h663v-174h-663v174z" />
    <glyph glyph-name="hyphen" unicode="&#xad;" horiz-adv-x="903" 
d="M120 800h663v-174h-663v174z" />
    <glyph glyph-name="period" unicode="." horiz-adv-x="432" 
d="M120 225h192v-224h-192v224z" />
    <glyph glyph-name="slash" unicode="/" horiz-adv-x="1008" 
d="M344 -31h-224l544 1536h224z" />
    <glyph glyph-name="zero" unicode="0" horiz-adv-x="1151" 
d="M576 1480q85 0 167.5 -49t143.5 -137q70 -98 107 -241.5t37 -314.5q0 -168 -37.5 -311t-106.5 -241q-60 -88 -143 -137t-168 -49q-86 0 -169 49t-143 137q-69 98 -106.5 241t-37.5 311q0 171 37 314.5t107 241.5q62 88 144 137t168 49zM575 1255q-90 0 -150 -111
q-36 -73 -58 -180.5t-22 -223.5q0 -114 21.5 -221.5t58.5 -181.5q60 -112 150 -112q91 0 151 112q36 73 58 181t22 222q0 116 -22 223.5t-58 180.5q-61 111 -151 111z" />
    <glyph glyph-name="one" unicode="1" horiz-adv-x="626" 
d="M122 1479h384v-1479h-225v1248h-161z" />
    <glyph glyph-name="two" unicode="2" horiz-adv-x="1055" 
d="M158 1315q70 62 154 107q136 73 263 66.5t210 -75.5q82 -69 110 -194q23 -104 5 -232q-32 -333 -492 -767h527v-220h-815v220q515 510 557 767q13 66 2 116q-16 71 -62 110q-47 39 -118.5 32.5t-148.5 -47.5q-75 -41 -131 -105l-61 219v3z" />
    <glyph glyph-name="three" unicode="3" horiz-adv-x="1136" 
d="M463 907h32h4q5 0 11 1q40 3 77 23q44 24 68.5 66t24.5 87q0 46 -25 89t-69 66t-91 23q-48 0 -92 -23q-25 -13 -43 -32l-1 -1l-219 80l2 4l1 1q55 95 154.5 146.5t205.5 51.5q104 0 203.5 -51.5t156 -147t56.5 -199.5q0 -103 -55 -197q-23 -39 -52 -71q87 -58 140 -148
q64 -111 64 -231q0 -122 -65 -233.5t-181 -171t-240 -59.5q-122 0 -238 60q-107 54 -171 153q-1 1 -1 2l188 118q35 -56 94 -87q61 -33 128 -33q66 0 129 32.5t97.5 92.5t34.5 125t-34.5 124t-97 92.5t-129.5 33.5h-67v214z" />
    <glyph glyph-name="four" unicode="4" horiz-adv-x="1102" 
d="M662 1472h192v-992h128v-224h-128v-256h-224v256h-509l-1 212zM342 480h288l-1 535z" />
    <glyph glyph-name="five" unicode="5" horiz-adv-x="1150" 
d="M334 663h-121l-1 816h694v-232h-474v-354q55 13 112 13q122 0 238 -60t182 -171.5t66 -233.5q0 -120 -64 -230.5t-180 -171.5t-242 -61t-242 61t-179 172q-2 1 -3 3l187 125q5 -10 11 -20q34 -60 96.5 -93t129.5 -33q68 0 130 33t96.5 92.5t34.5 123.5q0 66 -35.5 126
t-97 92t-128.5 32q-57 0 -112 -24l-11 -5q-3 -1 -87 0z" />
    <glyph glyph-name="six" unicode="6" horiz-adv-x="1215" 
d="M870 443q0 64 -34.5 123.5t-96.5 92.5t-130 33t-130 -33t-96.5 -92.5t-34.5 -123.5q0 -66 35.5 -126t97 -92t128.5 -32t129.5 32t97 92t34.5 126zM123 445q-3 390 500 1040h276q-307 -376 -412 -584q-3 -5 -5 -9q62 16 127 16q126 0 242 -61.5t180 -172t64 -230.5
q0 -122 -65 -233.5t-181 -171.5t-240 -60q-122 0 -238 60t-182 171.5t-66 233.5v1z" />
    <glyph glyph-name="seven" unicode="7" horiz-adv-x="1022" 
d="M120 1488h782v-228l-398 -1260h-256l384 1250h-512v238z" />
    <glyph glyph-name="eight" unicode="8" horiz-adv-x="1212" 
d="M345 442q0 -64 34.5 -123.5t96.5 -93t130 -33.5t130 33.5t96.5 93t34.5 123.5q0 66 -35.5 126t-97 92t-128.5 32t-129.5 -32t-97 -92t-34.5 -126zM433 1109q0 -42 23 -81.5t64 -61.5t86 -22q44 0 85.5 22t64 61.5t22.5 81.5q0 44 -23.5 83.5t-64 61t-84.5 21.5
t-85.5 -21.5t-64.5 -61t-23 -83.5zM863 836q103 -59 163 -161q66 -112 66 -234q0 -120 -64 -230.5t-180 -171.5t-242 -61t-242 61t-180 171.5t-64 230.5q0 122 65 234q60 102 163 161q-48 40 -80 96q-52 88 -52 185t52 186.5t145 137.5t193 48q97 0 190 -48t146 -137.5
t53 -186.5t-51 -185q-32 -56 -81 -96z" />
    <glyph glyph-name="nine" unicode="9" horiz-adv-x="1215" 
d="M345 1021q0 -64 34.5 -123.5t96.5 -92.5t130 -33t130 33t96.5 92.5t34.5 123.5q0 66 -35.5 126t-97 92t-128.5 32t-129.5 -32t-97 -92t-34.5 -126zM333 0q293 361 395 564q3 4 5 8q-62 -16 -127 -16q-126 0 -242 61.5t-180 172t-64 230.5q0 122 65 233.5t181 171.5
t240 60q122 0 238 -60t182 -171.5t66 -233.5v-1q3 -384 -484 -1019h-275z" />
    <glyph glyph-name="colon" unicode=":" horiz-adv-x="432" 
d="M120 705h192v-224h-192v224zM120 225h192v-224h-192v224z" />
    <glyph glyph-name="semicolon" unicode=";" horiz-adv-x="542" 
d="M227 705h192v-224h-192v224zM230 206h192v-27l-192 -467h-110z" />
    <glyph glyph-name="semicolon" unicode="&#x37e;" horiz-adv-x="542" 
d="M227 705h192v-224h-192v224zM230 206h192v-27l-192 -467h-110z" />
    <glyph glyph-name="less" unicode="&#x3c;" horiz-adv-x="1136" 
d="M120 413v198l896 413v-224l-608 -288l608 -288v-224z" />
    <glyph glyph-name="equal" unicode="=" horiz-adv-x="1136" 
d="M120 800h896v-174h-896v174zM120 430h896v-174h-896v174z" />
    <glyph glyph-name="greater" unicode="&#x3e;" horiz-adv-x="1136" 
d="M120 0v224l608 288l-608 288v224l896 -413v-198z" />
    <glyph glyph-name="question" unicode="?" horiz-adv-x="1042" 
d="M655 417h-256v160q0 213 143 330.5t145 242.5q-20 131 -147.5 131t-236.5 -192l-183 82q53 234 230 320q96 46 197 46q85 0 172 -32q192 -72 192 -335q11 -228 -137.5 -320.5t-118.5 -432.5zM637 224v-224h-220v224h220z" />
    <glyph glyph-name="at" unicode="@" horiz-adv-x="1667" 
d="M753 443q99 -11 170.5 75t86.5 231q11 107 -30 173t-123 75q-50 5 -95.5 -15.5t-82.5 -59.5t-61 -96t-31 -124q-11 -107 34.5 -178.5t131.5 -80.5zM1463 312l-61.5 -75.5t-48.5 -54.5t-46.5 -40.5l-50.5 -36.5q-159 -105 -387 -105q-163 0 -300.5 55.5t-237 155
t-155.5 235.5t-56 297q0 164 56 302.5t156.5 239.5t237 159t299.5 58q146 0 270.5 -47t215.5 -129.5t141.5 -196t50.5 -248.5q0 -188 -92 -328.5t-256 -205.5q-72 -31 -125 -31q-108 0 -108 113q-83 -104 -209 -104q-68 0 -125 26t-97.5 73t-62.5 112.5t-22 143.5
q0 96 29.5 180t82.5 145t124 96t153 35q165 0 237 -140l23 114h150l-95 -567q-4 -18 -6 -30t-2 -18v-11q-5 -37 29 -37q30 0 76.5 32.5t88.5 85.5q49 56 73 130.5t24 152.5q0 116 -42 214t-116 168.5t-176.5 111t-225.5 40.5q-129 0 -241 -49t-194.5 -134t-129 -201.5
t-46.5 -249.5q0 -135 47.5 -249.5t130 -199.5t194.5 -133t243 -48q138 0 252 56l43 25t40.5 27.5t42.5 35t52 50.5h152z" />
    <glyph glyph-name="A" unicode="A" horiz-adv-x="1180" 
d="M658 1487l402 -1492h-229l-63 236h-356l-63 -236h-229l402 1492h136zM476 468h228l-113 477z" />
    <glyph glyph-name="B" unicode="B" horiz-adv-x="1144" 
d="M344 997h117q48 0 81.5 36.5t33.5 89.5q0 52 -33.5 88.5t-81.5 36.5h-117v-251zM120 0v1472h341q141 0 240 -99t99 -239q0 -138 -95 -236q102 -32 185 -114q134 -135 134 -325t-134.5 -324.5t-324.5 -134.5h-445zM344 723v-337v-162h221q97 0 166 73.5t69 176.5
q0 102 -69 175.5t-166 73.5h-221z" />
    <glyph glyph-name="C" unicode="C" horiz-adv-x="1275" 
d="M1155 308v-256q-130 -52 -278 -52q-158 0 -295 58.5t-240 158.5t-162.5 234.5t-59.5 288.5q0 153 59.5 289.5t162.5 236.5t240 158t295 58q148 0 278 -51v-259q-37 23 -78 40q-94 39 -200 39q-107 0 -201 -39t-164 -108.5t-110 -163t-40 -200.5t40 -200.5t110 -163
t164 -109t201 -39.5q106 0 200 40q41 17 78 40z" />
    <glyph glyph-name="D" unicode="D" horiz-adv-x="1247" 
d="M120 0v1472h271q305 0 520.5 -215.5t215.5 -520.5q0 -304 -215.5 -520t-520.5 -216h-271zM344 1249v-1025h47q212 0 362.5 150t150.5 362q0 213 -150.5 363t-362.5 150h-47z" />
    <glyph glyph-name="E" unicode="E" horiz-adv-x="922" 
d="M120 1472h682v-224h-457v-400h457v-224h-457v-400h457v-224h-682v1472z" />
    <glyph glyph-name="F" unicode="F" horiz-adv-x="922" 
d="M120 1472h682v-224h-457v-400h457v-224h-457v-624h-225v1472z" />
    <glyph glyph-name="G" unicode="G" horiz-adv-x="1275" 
d="M963 235v389h-155v224h347v-796q-130 -52 -278 -52q-158 0 -295 58.5t-240 158.5t-162.5 234.5t-59.5 288.5q0 153 59.5 289.5t162.5 236.5t240 158t295 58q148 0 278 -51v-259q-37 23 -78 40q-94 39 -200 39q-107 0 -201 -39t-164 -108.5t-110 -163t-40 -200.5
t40 -200.5t110 -163t164 -109t201 -39.5q44 0 86 7z" />
    <glyph glyph-name="H" unicode="H" horiz-adv-x="1206" 
d="M120 1472h224v-624h518v624h224v-1472h-224v624h-518v-624h-224v1472z" />
    <glyph glyph-name="I" unicode="I" horiz-adv-x="464" 
d="M120 1472h224v-1472h-224v1472z" />
    <glyph glyph-name="J" unicode="J" horiz-adv-x="899" 
d="M120 286q118 -69 211 -69t158.5 66t65.5 159v1031h224v-1031q0 -186 -131 -317.5t-317 -131.5q-113 0 -211 50v243z" />
    <glyph glyph-name="K" unicode="K" horiz-adv-x="1140" 
d="M1020 1474l-334 -572l311 -902h-239l-222 645l-191 -326v-319l-225 2v1472h225v-712l416 712h259z" />
    <glyph glyph-name="L" unicode="L" horiz-adv-x="927" 
d="M120 1472h225v-1248h462v-224h-687v1472z" />
    <glyph glyph-name="M" unicode="M" horiz-adv-x="1196" 
d="M889 1476h187v-1478h-225v715l-253 -675l-254 685v-723h-224v1476h187l291 -792z" />
    <glyph glyph-name="N" unicode="N" horiz-adv-x="1152" 
d="M866 0l-521 914v-914h-225v1476h206l482 -886v890h224v-1480h-166z" />
    <glyph glyph-name="O" unicode="O" horiz-adv-x="1753" 
d="M1633 740q0 -154 -59.5 -288.5t-162.5 -234.5t-240 -158.5t-294 -58.5q-158 0 -295 58.5t-240 158.5t-162.5 234.5t-59.5 288.5q0 153 59.5 289.5t162.5 236.5t240 158t295 58q157 0 294 -58t240 -158t162.5 -236.5t59.5 -289.5zM362 740q0 -107 40 -200.5t110 -163
t164 -109t201 -39.5q106 0 200 39.5t163.5 109t109.5 163t40 200.5t-40 200.5t-109.5 163t-163.5 108.5t-200 39q-107 0 -201 -39t-164 -108.5t-110 -163t-40 -200.5z" />
    <glyph glyph-name="P" unicode="P" horiz-adv-x="1007" 
d="M344 411v-409h-224v1472h224h40q209 0 356 -156t147 -376q0 -221 -147 -377t-356 -156q-20 0 -40 2zM344 1255v-624q19 -3 40 -3q123 0 209.5 92t86.5 222t-86.5 221.5t-209.5 91.5h-40z" />
    <glyph glyph-name="Q" unicode="Q" horiz-adv-x="1766" 
d="M1072 266l-214 255h271l118 -138q65 67 103 157q40 93 40 200t-40 200.5t-109.5 163t-163.5 108.5t-200 39q-107 0 -201 -39t-164 -108.5t-110 -163t-40 -200.5t40 -200.5t110 -163t164 -109t201 -39.5q103 0 195 38zM1399 205l247 -289h-280l-141 168q-26 -14 -54 -25
q-137 -59 -294 -59q-158 0 -295 58.5t-240 158.5t-162.5 234.5t-59.5 288.5q0 153 59.5 289.5t162.5 236.5t240 158t295 58q157 0 294 -58t240 -158t162.5 -236.5t59.5 -289.5q0 -154 -59.5 -288.5t-162.5 -234.5z" />
    <glyph glyph-name="R" unicode="R" horiz-adv-x="1050" 
d="M344 411v-409h-224v1472h224v-1q20 1 40 1q209 0 356 -156t147 -376q0 -221 -147 -377q-37 -39 -77 -68l267 -499h-240l-222 418q-41 -7 -84 -7q-20 0 -40 2zM344 1253v-622q19 -3 40 -3q123 0 209.5 92t86.5 222t-86.5 221.5t-209.5 91.5q-20 0 -40 -2z" />
    <glyph glyph-name="S" unicode="S" horiz-adv-x="1037" 
d="M447 -2q-96 0 -169.5 24t-157.5 86v275q52 -55 80 -74.5t68.5 -41.5t89.5 -37t97 -15q99 0 162.5 68.5t63.5 162.5q0 77 -54 125t-177 110q-74 38 -125 69t-98 77t-76 109.5t-29 149.5q4 84 41 156.5t100 127t143.5 84.5t169.5 30q67 -2 122 -18.5t125 -59.5v-231
q-42 28 -57.5 34.5t-44 22t-66 26.5t-79.5 11q-94 -1 -159 -59.5t-65 -135.5q2 -73 54.5 -116.5t169.5 -97.5q80 -38 130.5 -67t99.5 -75t79 -116t32 -166q0 -88 -37 -167.5t-103 -140.5t-151.5 -95.5t-178.5 -34.5z" />
    <glyph glyph-name="T" unicode="T" horiz-adv-x="1200" 
d="M120 1480h960v-232h-368v-1248h-224v1248h-368v232z" />
    <glyph glyph-name="U" unicode="U" horiz-adv-x="1137" 
d="M793 449v1031h224v-1031q0 -186 -131 -317.5t-317 -131.5t-317.5 131.5t-131.5 317.5v1031h224v-1031q0 -93 66 -159t159 -66t158.5 66t65.5 159z" />
    <glyph glyph-name="V" unicode="V" horiz-adv-x="1430" 
d="M813 -2h-195l-498 1481h250l345 -1040l345 1040h250z" />
    <glyph glyph-name="W" unicode="W" horiz-adv-x="1698" 
d="M522 0l-402 1429h234l222 -793l253 781l4 12l16 -5l16 5l4 -12l253 -782l222 794h234l-402 -1429h-83l-244 751l-244 -751h-83z" />
    <glyph glyph-name="X" unicode="X" horiz-adv-x="1389" 
d="M842 768l427 -767l-268 -1l-303 512l-296 -512h-282l434 768l-408 714h268l284 -490l278 490h281z" />
    <glyph glyph-name="Y" unicode="Y" horiz-adv-x="1269" 
d="M120 1479h237l278 -656l277 656h237l-386 -919v-560h-257v560z" />
    <glyph glyph-name="Z" unicode="Z" horiz-adv-x="1158" 
d="M154 1479h869v-190l-576 -1064h591v-225h-918v196l552 1058h-518v225z" />
    <glyph glyph-name="bracketleft" unicode="[" horiz-adv-x="624" 
d="M120 1480h384v-180h-180v-1120h180v-180h-384v1480z" />
    <glyph glyph-name="backslash" unicode="\" horiz-adv-x="1040" 
d="M120 1505h192l608 -1536h-192z" />
    <glyph glyph-name="bracketright" unicode="]" horiz-adv-x="624" 
d="M120 1480h384v-1480h-384v180h180v1120h-180v180z" />
    <glyph glyph-name="asciicircum" unicode="^" horiz-adv-x="950" 
d="M563 1564l267 -512h-171l-184 321l-184 -321h-171l267 512h176z" />
    <glyph glyph-name="underscore" unicode="_" horiz-adv-x="1615" 
d="M120 -148h1375v-108h-1375v108z" />
    <glyph glyph-name="grave" unicode="`" horiz-adv-x="530" 
d="M410 1183v-27h-105l-185 452v27h185z" />
    <glyph glyph-name="a" unicode="a" horiz-adv-x="1427" 
d="M439 199l-79 -204h-240l594 1544l593 -1544h-240l-78 204h-550zM525 423h378l-189 491z" />
    <glyph glyph-name="b" unicode="b" horiz-adv-x="1144" 
d="M344 997h117q48 0 81.5 36.5t33.5 89.5q0 52 -33.5 88.5t-81.5 36.5h-117v-251zM120 0v1472h341q141 0 240 -99t99 -239q0 -138 -95 -236q102 -32 185 -114q134 -135 134 -325t-134.5 -324.5t-324.5 -134.5h-445zM344 723v-337v-162h221q97 0 166 73.5t69 176.5
q0 102 -69 175.5t-166 73.5h-221z" />
    <glyph glyph-name="c" unicode="c" horiz-adv-x="1275" 
d="M1155 308v-256q-130 -52 -278 -52q-158 0 -295 58.5t-240 158.5t-162.5 234.5t-59.5 288.5q0 153 59.5 289.5t162.5 236.5t240 158t295 58q148 0 278 -51v-259q-37 23 -78 40q-94 39 -200 39q-107 0 -201 -39t-164 -108.5t-110 -163t-40 -200.5t40 -200.5t110 -163
t164 -109t201 -39.5q106 0 200 40q41 17 78 40z" />
    <glyph glyph-name="d" unicode="d" horiz-adv-x="1247" 
d="M120 0v1472h271q305 0 520.5 -215.5t215.5 -520.5q0 -304 -215.5 -520t-520.5 -216h-271zM344 1249v-1025h47q212 0 362.5 150t150.5 362q0 213 -150.5 363t-362.5 150h-47z" />
    <glyph glyph-name="e" unicode="e" horiz-adv-x="922" 
d="M120 1472h682v-224h-457v-544h457v-224h-457v-256h457v-224h-682v1472z" />
    <glyph glyph-name="f" unicode="f" horiz-adv-x="922" 
d="M120 1472h682v-224h-457v-544h457v-224h-457v-480h-225v1472z" />
    <glyph glyph-name="g" unicode="g" horiz-adv-x="1275" 
d="M963 235v245h-155v224h347v-652q-130 -52 -278 -52q-158 0 -295 58.5t-240 158.5t-162.5 234.5t-59.5 288.5q0 153 59.5 289.5t162.5 236.5t240 158t295 58q148 0 278 -51v-259q-37 23 -78 40q-94 39 -200 39q-107 0 -201 -39t-164 -108.5t-110 -163t-40 -200.5
t40 -200.5t110 -163t164 -109t201 -39.5q44 0 86 7z" />
    <glyph glyph-name="h" unicode="h" horiz-adv-x="1206" 
d="M1086 0h-226v480h-514v-480h-226v1480h226v-772h514v772h226v-1480z" />
    <glyph glyph-name="i" unicode="i" horiz-adv-x="464" 
d="M120 1480h224v-1480h-224v1480z" />
    <glyph glyph-name="j" unicode="j" horiz-adv-x="899" 
d="M120 286q118 -69 211 -69t158.5 66t65.5 159v1031h224v-1031q0 -186 -131 -317.5t-317 -131.5q-113 0 -211 50v243z" />
    <glyph glyph-name="k" unicode="k" horiz-adv-x="1140" 
d="M1020 1474l-334 -572l311 -902h-239l-222 645l-191 -326v-319l-225 2v1472h225v-712l416 712h259z" />
    <glyph glyph-name="l" unicode="l" horiz-adv-x="976" 
d="M120 1472h225v-1248h511v-224h-736v1472z" />
    <glyph glyph-name="m" unicode="m" horiz-adv-x="1352" 
d="M676 688l332 509l224 343v-1540h-224v787l-332 -509l-332 509v-787h-224v1540l224 -343z" />
    <glyph glyph-name="n" unicode="n" horiz-adv-x="1147" 
d="M803 614v866h224v-1545l-683 924v-859h-224v1540z" />
    <glyph glyph-name="o" unicode="o" horiz-adv-x="1753" 
d="M1633 740q0 -154 -59.5 -288.5t-162.5 -234.5t-240 -158.5t-294 -58.5q-158 0 -295 58.5t-240 158.5t-162.5 234.5t-59.5 288.5q0 153 59.5 289.5t162.5 236.5t240 158t295 58q157 0 294 -58t240 -158t162.5 -236.5t59.5 -289.5zM362 740q0 -107 40 -200.5t110 -163
t164 -109t201 -39.5q106 0 200 39.5t163.5 109t109.5 163t40 200.5t-40 200.5t-109.5 163t-163.5 108.5t-200 39q-107 0 -201 -39t-164 -108.5t-110 -163t-40 -200.5z" />
    <glyph glyph-name="p" unicode="p" horiz-adv-x="1065" 
d="M344 315v-315h-224v1482h241q242 0 413 -171t171 -412q0 -242 -171 -413t-413 -171h-17zM344 537h17q150 0 256 106t106 256t-106 256t-256 106h-17v-724z" />
    <glyph glyph-name="q" unicode="q" horiz-adv-x="1766" 
d="M1072 266l-214 255h271l118 -138q65 67 103 157q40 93 40 200t-40 200.5t-109.5 163t-163.5 108.5t-200 39q-107 0 -201 -39t-164 -108.5t-110 -163t-40 -200.5t40 -200.5t110 -163t164 -109t201 -39.5q103 0 195 38zM1399 205l247 -289h-280l-141 168q-26 -14 -54 -25
q-137 -59 -294 -59q-158 0 -295 58.5t-240 158.5t-162.5 234.5t-59.5 288.5q0 153 59.5 289.5t162.5 236.5t240 158t295 58q157 0 294 -58t240 -158t162.5 -236.5t59.5 -289.5q0 -154 -59.5 -288.5t-162.5 -234.5z" />
    <glyph glyph-name="r" unicode="r" horiz-adv-x="1065" 
d="M344 537h17q150 0 256 106t106 256t-106 256t-256 106h-17v-724zM720 438l210 -440h-240l-159 341q-80 -24 -170 -24h-17v-315h-224v1482h241q242 0 413 -171t171 -412q0 -242 -171 -413q-26 -26 -54 -48z" />
    <glyph glyph-name="s" unicode="s" horiz-adv-x="1037" 
d="M447 -2q-96 0 -169.5 24t-157.5 86v275q52 -55 80 -74.5t68.5 -41.5t89.5 -37t97 -15q99 0 162.5 68.5t63.5 162.5q0 77 -54 125t-177 110q-74 38 -125 69t-98 77t-76 109.5t-29 149.5q4 84 41 156.5t100 127t143.5 84.5t169.5 30q67 -2 122 -18.5t125 -59.5v-231
q-42 28 -57.5 34.5t-44 22t-66 26.5t-79.5 11q-94 -1 -159 -59.5t-65 -135.5q2 -73 54.5 -116.5t169.5 -97.5q80 -38 130.5 -67t99.5 -75t79 -116t32 -166q0 -88 -37 -167.5t-103 -140.5t-151.5 -95.5t-178.5 -34.5z" />
    <glyph glyph-name="t" unicode="t" horiz-adv-x="1200" 
d="M120 1480h960v-232h-368v-1240h-224v1240h-368v232z" />
    <glyph glyph-name="u" unicode="u" horiz-adv-x="1137" 
d="M793 449v1031h224v-1031q0 -186 -131 -317.5t-317 -131.5t-317.5 131.5t-131.5 317.5v1031h224v-1031q0 -93 66 -159t159 -66t158.5 66t65.5 159z" />
    <glyph glyph-name="v" unicode="v" horiz-adv-x="1427" 
d="M1307 1480l-593 -1545l-594 1545h240l354 -920l353 920h240z" />
    <glyph glyph-name="w" unicode="w" horiz-adv-x="1781" 
d="M355 1479l259 -809l277 868l277 -868l258 809h235l-493 -1543l-277 866l-277 -866l-494 1543h235z" />
    <glyph glyph-name="x" unicode="x" horiz-adv-x="1389" 
d="M1255 1479l-413 -711l427 -767l-268 -1l-303 512l-296 -512h-282l434 768l-406 711h268l282 -487l276 487h281z" />
    <glyph glyph-name="y" unicode="y" horiz-adv-x="1269" 
d="M120 1479h237l278 -836l277 836h237l-386 -1099v-380h-257v380z" />
    <glyph glyph-name="z" unicode="z" horiz-adv-x="1158" 
d="M154 1479h869v-190l-576 -1064h591v-225h-918v196l552 1058h-518v225z" />
    <glyph glyph-name="braceleft" unicode="{" horiz-adv-x="752" 
d="M632 1379h-96q-96 0 -96 -121v-472q0 -106 -96 -223q96 -117 96 -243v-162q0 -123 96 -123h96v-143h-96q-256 15 -256 259v124q0 146 -160 236v104q160 104 160 236v413q0 245 256 259h96v-144z" />
    <glyph glyph-name="bar" unicode="|" horiz-adv-x="432" 
d="M120 1473h192v-1472h-192v1472z" />
    <glyph glyph-name="braceright" unicode="}" horiz-adv-x="752" 
d="M120 1523h96q256 -15 256 -259v-413q0 -132 160 -236v-104q-160 -90 -160 -236v-125q0 -244 -256 -259h-96v144h96q96 0 96 122v163q0 126 96 243q-96 117 -96 223v471q0 122 -96 122h-96v144z" />
    <glyph glyph-name="asciitilde" unicode="~" horiz-adv-x="1239" 
d="M1001 1866l118 -125q-122 -132 -227.5 -139.5t-329.5 72t-324 -79.5l-118 125q122 132 227.5 139.5t329.5 -72t324 79.5z" />
    <glyph glyph-name="Adieresis" unicode="&#xc4;" horiz-adv-x="1180" 
d="M658 1487l402 -1492h-229l-63 236h-356l-63 -236h-229l402 1492h136zM476 468h228l-113 477zM440 1727q22 0 42.5 -11.5t32.5 -32.5t12 -43q0 -23 -11.5 -43.5t-32 -32t-43.5 -11.5t-43.5 11.5t-32 32t-11.5 43.5q0 22 11.5 43t32.5 32.5t43 11.5zM740 1727
q22 0 42.5 -11.5t32.5 -32.5t12 -43q0 -23 -11.5 -43.5t-32 -32t-43.5 -11.5t-43.5 11.5t-32 32t-11.5 43.5q0 22 11.5 43t32.5 32.5t43 11.5z" />
    <glyph glyph-name="Aring" unicode="&#xc5;" 
 />
    <glyph glyph-name="Ccedilla" unicode="&#xc7;" 
 />
    <glyph glyph-name="Eacute" unicode="&#xc9;" 
 />
    <glyph glyph-name="Ntilde" unicode="&#xd1;" 
 />
    <glyph glyph-name="Odieresis" unicode="&#xd6;" 
 />
    <glyph glyph-name="Udieresis" unicode="&#xdc;" 
 />
    <glyph glyph-name="aacute" unicode="&#xe1;" 
 />
    <glyph glyph-name="agrave" unicode="&#xe0;" 
 />
    <glyph glyph-name="acircumflex" unicode="&#xe2;" 
 />
    <glyph glyph-name="adieresis" unicode="&#xe4;" 
 />
    <glyph glyph-name="atilde" unicode="&#xe3;" 
 />
    <glyph glyph-name="aring" unicode="&#xe5;" 
 />
    <glyph glyph-name="ccedilla" unicode="&#xe7;" 
 />
    <glyph glyph-name="eacute" unicode="&#xe9;" 
 />
    <glyph glyph-name="egrave" unicode="&#xe8;" 
 />
    <glyph glyph-name="ecircumflex" unicode="&#xea;" 
 />
    <glyph glyph-name="edieresis" unicode="&#xeb;" 
 />
    <glyph glyph-name="iacute" unicode="&#xed;" 
 />
    <glyph glyph-name="igrave" unicode="&#xec;" 
 />
    <glyph glyph-name="icircumflex" unicode="&#xee;" 
 />
    <glyph glyph-name="idieresis" unicode="&#xef;" 
 />
    <glyph glyph-name="ntilde" unicode="&#xf1;" 
 />
    <glyph glyph-name="oacute" unicode="&#xf3;" 
 />
    <glyph glyph-name="ograve" unicode="&#xf2;" 
 />
    <glyph glyph-name="ocircumflex" unicode="&#xf4;" 
 />
    <glyph glyph-name="odieresis" unicode="&#xf6;" 
 />
    <glyph glyph-name="otilde" unicode="&#xf5;" 
 />
    <glyph glyph-name="uacute" unicode="&#xfa;" 
 />
    <glyph glyph-name="ugrave" unicode="&#xf9;" 
 />
    <glyph glyph-name="ucircumflex" unicode="&#xfb;" 
 />
    <glyph glyph-name="udieresis" unicode="&#xfc;" 
 />
    <glyph glyph-name="dagger" unicode="&#x2020;" 
 />
    <glyph glyph-name="degree" unicode="&#xb0;" 
 />
    <glyph glyph-name="cent" unicode="&#xa2;" horiz-adv-x="1037" 
d="M740 1301q89 -5 177 -39v-192h-10q-77 46 -167 54v-786q84 8 177 57v-192q-83 -33 -177 -39v-164h-169v176q-197 43 -344 226q-107 152 -107 329q0 301 272 485q85 51 179 72v186h169v-173zM571 1106q-134 -45 -223 -191q-43 -91 -43 -187q0 -204 188 -335q38 -22 78 -36
v749z" />
    <glyph glyph-name="sterling" unicode="&#xa3;" 
 />
    <glyph glyph-name="section" unicode="&#xa7;" 
 />
    <glyph glyph-name="bullet" unicode="&#x2022;" 
 />
    <glyph glyph-name="paragraph" unicode="&#xb6;" 
 />
    <glyph glyph-name="germandbls" unicode="&#xdf;" 
 />
    <glyph glyph-name="registered" unicode="&#xae;" horiz-adv-x="1352" 
d="M1232 1076q0 -113 -43.5 -212t-119.5 -172.5t-176.5 -116.5t-216.5 -43t-216.5 43t-176.5 116.5t-119.5 172.5t-43.5 212q0 112 43.5 212.5t119.5 174t176.5 116t216.5 42.5t216.5 -42.5t176.5 -116t119.5 -174t43.5 -212.5zM203 1076q0 -98 37 -184t101 -149.5
t150.5 -100t185.5 -36.5q97 0 183.5 36.5t150 100t100.5 149.5t37 184t-37 184t-100.5 149.5t-150 99.5t-183.5 36q-99 0 -185.5 -36t-150.5 -99.5t-101 -149.5t-37 -184zM499 1447h111q94 -2 163 -44q132 -90 132 -245q0 -90 -51 -164q-15 -20 -60 -60l103 -216h-118
l-78 169q-51 -11 -91 -9v-159h-111v728zM610 1341v-361h18q43 1 85 26q83 55 83 152q0 51 -19 91q-55 92 -145 92h-22z" />
    <glyph glyph-name="copyright" unicode="&#xa9;" horiz-adv-x="1352" 
d="M1232 1076q0 -113 -43.5 -212t-119.5 -172.5t-176.5 -116.5t-216.5 -43t-216.5 43t-176.5 116.5t-119.5 172.5t-43.5 212q0 112 43.5 212.5t119.5 174t176.5 116t216.5 42.5t216.5 -42.5t176.5 -116t119.5 -174t43.5 -212.5zM203 1076q0 -98 37 -184t101 -149.5
t150.5 -100t185.5 -36.5q97 0 183.5 36.5t150 100t100.5 149.5t37 184t-37 184t-100.5 149.5t-150 99.5t-183.5 36q-99 0 -185.5 -36t-150.5 -99.5t-101 -149.5t-37 -184zM717 1447q68 0 135 -26v-122h-7q-60 36 -131 36q-143 0 -225 -135q-27 -58 -27 -119q0 -130 119 -213
q63 -37 136 -37q63 0 135 38v-123q-65 -25 -140 -25q-177 0 -300 152q-68 97 -68 209q0 192 174 310q90 55 199 55z" />
    <glyph glyph-name="trademark" unicode="&#x2122;" horiz-adv-x="1359" 
d="M1136 1488h103v-816h-124v394l-140 -373l-141 379v-400h-123v816h103l161 -438zM120 1488h531v-111h-204v-705h-124v705h-203v111z" />
    <glyph glyph-name="acute" unicode="&#xb4;" horiz-adv-x="530" 
d="M225 1635h185v-27l-185 -452h-105v27z" />
    <glyph glyph-name="dieresis" unicode="&#xa8;" horiz-adv-x="714" 
d="M207 1481q22 0 42.5 -11.5t32.5 -32.5t12 -43q0 -23 -11.5 -43.5t-32 -32t-43.5 -11.5t-43.5 11.5t-32 32t-11.5 43.5q0 22 11.5 43t32.5 32.5t43 11.5zM507 1481q22 0 42.5 -11.5t32.5 -32.5t12 -43q0 -23 -11.5 -43.5t-32 -32t-43.5 -11.5t-43.5 11.5t-32 32
t-11.5 43.5q0 22 11.5 43t32.5 32.5t43 11.5z" />
    <glyph glyph-name="notequal" unicode="&#x2260;" 
 />
    <glyph glyph-name="AE" unicode="&#xc6;" 
 />
    <glyph glyph-name="Oslash" unicode="&#xd8;" 
 />
    <glyph glyph-name="infinity" unicode="&#x221e;" 
 />
    <glyph glyph-name="plusminus" unicode="&#xb1;" 
 />
    <glyph glyph-name="lessequal" unicode="&#x2264;" 
 />
    <glyph glyph-name="greaterequal" unicode="&#x2265;" 
 />
    <glyph glyph-name="yen" unicode="&#xa5;" 
 />
    <glyph glyph-name="mu" unicode="&#xb5;" 
 />
    <glyph glyph-name="partialdiff" unicode="&#x2202;" 
 />
    <glyph glyph-name="summation" unicode="&#x2211;" 
 />
    <glyph glyph-name="product" unicode="&#x220f;" 
 />
    <glyph glyph-name="glyph155" 
 />
    <glyph glyph-name="integral" unicode="&#x222b;" 
 />
    <glyph glyph-name="ordfeminine" unicode="&#xaa;" 
 />
    <glyph glyph-name="ordmasculine" unicode="&#xba;" 
 />
    <glyph glyph-name="Omega" unicode="&#x2126;" 
 />
    <glyph glyph-name="ae" unicode="&#xe6;" 
 />
    <glyph glyph-name="oslash" unicode="&#xf8;" 
 />
    <glyph glyph-name="questiondown" unicode="&#xbf;" 
 />
    <glyph glyph-name="exclamdown" unicode="&#xa1;" 
 />
    <glyph glyph-name="logicalnot" unicode="&#xac;" 
 />
    <glyph glyph-name="radical" unicode="&#x221a;" 
 />
    <glyph glyph-name="florin" unicode="&#x192;" 
 />
    <glyph glyph-name="approxequal" unicode="&#x2248;" 
 />
    <glyph glyph-name="Delta" unicode="&#x2206;" 
 />
    <glyph glyph-name="guillemotleft" unicode="&#xab;" 
 />
    <glyph glyph-name="guillemotright" unicode="&#xbb;" 
 />
    <glyph glyph-name="ellipsis" unicode="&#x2026;" 
 />
    <glyph glyph-name="Agrave" unicode="&#xc0;" 
 />
    <glyph glyph-name="Atilde" unicode="&#xc3;" 
 />
    <glyph glyph-name="Otilde" unicode="&#xd5;" 
 />
    <glyph glyph-name="OE" unicode="&#x152;" 
 />
    <glyph glyph-name="oe" unicode="&#x153;" 
 />
    <glyph glyph-name="endash" unicode="&#x2013;" 
 />
    <glyph glyph-name="emdash" unicode="&#x2014;" 
 />
    <glyph glyph-name="quotedblleft" unicode="&#x201c;" horiz-adv-x="1008" 
d="M238 1635h208v-30l-208 -502h-118v30zM680 1636h208v-29l-208 -503h-118v30z" />
    <glyph glyph-name="quotedblright" unicode="&#x201d;" horiz-adv-x="1008" 
d="M238 1635h208v-30l-208 -502h-118v30zM680 1636h208v-29l-208 -503h-118v30z" />
    <glyph glyph-name="quoteleft" unicode="&#x2018;" 
 />
    <glyph glyph-name="quoteright" unicode="&#x2019;" horiz-adv-x="566" 
d="M238 1635h208v-30l-208 -502h-118v30z" />
    <glyph glyph-name="divide" unicode="&#xf7;" 
 />
    <glyph glyph-name="lozenge" unicode="&#x25ca;" 
 />
    <glyph glyph-name="ydieresis" unicode="&#xff;" 
 />
    <glyph glyph-name="Ydieresis" unicode="&#x178;" 
 />
    <glyph glyph-name="fraction" unicode="&#x2044;" 
 />
    <glyph glyph-name="fraction" unicode="&#x2215;" 
 />
    <glyph glyph-name="Euro" unicode="&#x20ac;" 
 />
    <glyph glyph-name="guilsinglleft" unicode="&#x2039;" 
 />
    <glyph glyph-name="guilsinglright" unicode="&#x203a;" 
 />
    <glyph glyph-name="uniF001" unicode="&#xf001;" 
 />
    <glyph glyph-name="uniF001" unicode="&#xfb01;" 
 />
    <glyph glyph-name="uniF002" unicode="&#xf002;" 
 />
    <glyph glyph-name="uniF002" unicode="&#xfb02;" 
 />
    <glyph glyph-name="daggerdbl" unicode="&#x2021;" 
 />
    <glyph glyph-name="periodcentered" unicode="&#xb7;" 
 />
    <glyph glyph-name="periodcentered" unicode="&#x2219;" 
 />
    <glyph glyph-name="quotesinglbase" unicode="&#x201a;" 
 />
    <glyph glyph-name="quotedblbase" unicode="&#x201e;" 
 />
    <glyph glyph-name="perthousand" unicode="&#x2030;" 
 />
    <glyph glyph-name="Acircumflex" unicode="&#xc2;" 
 />
    <glyph glyph-name="Ecircumflex" unicode="&#xca;" 
 />
    <glyph glyph-name="Aacute" unicode="&#xc1;" 
 />
    <glyph glyph-name="Edieresis" unicode="&#xcb;" 
 />
    <glyph glyph-name="Egrave" unicode="&#xc8;" 
 />
    <glyph glyph-name="Iacute" unicode="&#xcd;" 
 />
    <glyph glyph-name="Icircumflex" unicode="&#xce;" 
 />
    <glyph glyph-name="Idieresis" unicode="&#xcf;" 
 />
    <glyph glyph-name="Igrave" unicode="&#xcc;" 
 />
    <glyph glyph-name="Oacute" unicode="&#xd3;" 
 />
    <glyph glyph-name="Ocircumflex" unicode="&#xd4;" 
 />
    <glyph glyph-name="Ograve" unicode="&#xd2;" 
 />
    <glyph glyph-name="Uacute" unicode="&#xda;" 
 />
    <glyph glyph-name="Ucircumflex" unicode="&#xdb;" 
 />
    <glyph glyph-name="Ugrave" unicode="&#xd9;" 
 />
    <glyph glyph-name="dotlessi" unicode="&#x131;" 
 />
    <glyph glyph-name="circumflex" unicode="&#x2c6;" horiz-adv-x="816" 
d="M328 1307h-208v13l208 215h160l208 -215v-13h-208l-80 146z" />
    <glyph glyph-name="tilde" unicode="&#x2dc;" 
 />
    <glyph glyph-name="uni02C9" unicode="&#x2c9;" 
 />
    <glyph glyph-name="breve" unicode="&#x2d8;" 
 />
    <glyph glyph-name="dotaccent" unicode="&#x2d9;" 
 />
    <glyph glyph-name="ring" unicode="&#x2da;" 
 />
    <glyph glyph-name="cedilla" unicode="&#xb8;" 
 />
    <glyph glyph-name="hungarumlaut" unicode="&#x2dd;" 
 />
    <glyph glyph-name="ogonek" unicode="&#x2db;" 
 />
    <glyph glyph-name="caron" unicode="&#x2c7;" 
 />
    <glyph glyph-name="Lslash" unicode="&#x141;" 
 />
    <glyph glyph-name="lslash" unicode="&#x142;" 
 />
    <glyph glyph-name="Scaron" unicode="&#x160;" 
 />
    <glyph glyph-name="scaron" unicode="&#x161;" 
 />
    <glyph glyph-name="Zcaron" unicode="&#x17d;" 
 />
    <glyph glyph-name="zcaron" unicode="&#x17e;" 
 />
    <glyph glyph-name="brokenbar" unicode="&#xa6;" 
 />
    <glyph glyph-name="Eth" unicode="&#xd0;" 
 />
    <glyph glyph-name="eth" unicode="&#xf0;" 
 />
    <glyph glyph-name="Yacute" unicode="&#xdd;" 
 />
    <glyph glyph-name="yacute" unicode="&#xfd;" 
 />
    <glyph glyph-name="Thorn" unicode="&#xde;" 
 />
    <glyph glyph-name="thorn" unicode="&#xfe;" 
 />
    <glyph glyph-name="minus" unicode="&#x2212;" 
 />
    <glyph glyph-name="multiply" unicode="&#xd7;" 
 />
    <glyph glyph-name="uni00B9" unicode="&#xb9;" 
 />
    <glyph glyph-name="uni00B2" unicode="&#xb2;" 
 />
    <glyph glyph-name="uni00B3" unicode="&#xb3;" 
 />
    <glyph glyph-name="onehalf" unicode="&#xbd;" 
 />
    <glyph glyph-name="onequarter" unicode="&#xbc;" 
 />
    <glyph glyph-name="threequarters" unicode="&#xbe;" 
 />
    <glyph glyph-name="franc" unicode="&#x20a3;" 
 />
    <glyph glyph-name="Gbreve" unicode="&#x11e;" 
 />
    <glyph glyph-name="gbreve" unicode="&#x11f;" 
 />
    <glyph glyph-name="Idotaccent" unicode="&#x130;" 
 />
    <glyph glyph-name="Scedilla" unicode="&#x15e;" 
 />
    <glyph glyph-name="scedilla" unicode="&#x15f;" 
 />
    <glyph glyph-name="Cacute" unicode="&#x106;" 
 />
    <glyph glyph-name="cacute" unicode="&#x107;" 
 />
    <glyph glyph-name="Ccaron" unicode="&#x10c;" 
 />
    <glyph glyph-name="ccaron" unicode="&#x10d;" 
 />
    <glyph glyph-name="dcroat" unicode="&#x111;" 
 />
    <glyph glyph-name="currency" unicode="&#xa4;" 
 />
    <glyph glyph-name="macron" unicode="&#xaf;" 
 />
    <glyph glyph-name="Amacron" unicode="&#x100;" 
 />
    <glyph glyph-name="amacron" unicode="&#x101;" 
 />
    <glyph glyph-name="Abreve" unicode="&#x102;" 
 />
    <glyph glyph-name="abreve" unicode="&#x103;" 
 />
    <glyph glyph-name="Aogonek" unicode="&#x104;" 
 />
    <glyph glyph-name="aogonek" unicode="&#x105;" 
 />
    <glyph glyph-name="Ccircumflex" unicode="&#x108;" 
 />
    <glyph glyph-name="ccircumflex" unicode="&#x109;" 
 />
    <glyph glyph-name="Cdotaccent" unicode="&#x10a;" 
 />
    <glyph glyph-name="cdotaccent" unicode="&#x10b;" 
 />
    <glyph glyph-name="Dcaron" unicode="&#x10e;" 
 />
    <glyph glyph-name="dcaron" unicode="&#x10f;" 
 />
    <glyph glyph-name="Dcroat" unicode="&#x110;" 
 />
    <glyph glyph-name="Emacron" unicode="&#x112;" 
 />
    <glyph glyph-name="emacron" unicode="&#x113;" 
 />
    <glyph glyph-name="Ebreve" unicode="&#x114;" 
 />
    <glyph glyph-name="ebreve" unicode="&#x115;" 
 />
    <glyph glyph-name="Edotaccent" unicode="&#x116;" 
 />
    <glyph glyph-name="edotaccent" unicode="&#x117;" 
 />
    <glyph glyph-name="Eogonek" unicode="&#x118;" 
 />
    <glyph glyph-name="eogonek" unicode="&#x119;" 
 />
    <glyph glyph-name="Ecaron" unicode="&#x11a;" 
 />
    <glyph glyph-name="ecaron" unicode="&#x11b;" 
 />
    <glyph glyph-name="Gcircumflex" unicode="&#x11c;" 
 />
    <glyph glyph-name="gcircumflex" unicode="&#x11d;" 
 />
    <glyph glyph-name="Gdotaccent" unicode="&#x120;" 
 />
    <glyph glyph-name="gdotaccent" unicode="&#x121;" 
 />
    <glyph glyph-name="Gcommaaccent" unicode="&#x122;" 
 />
    <glyph glyph-name="gcommaaccent" unicode="&#x123;" 
 />
    <glyph glyph-name="Hcircumflex" unicode="&#x124;" 
 />
    <glyph glyph-name="hcircumflex" unicode="&#x125;" 
 />
    <glyph glyph-name="Hbar" unicode="&#x126;" 
 />
    <glyph glyph-name="hbar" unicode="&#x127;" 
 />
    <glyph glyph-name="Itilde" unicode="&#x128;" 
 />
    <glyph glyph-name="itilde" unicode="&#x129;" 
 />
    <glyph glyph-name="Imacron" unicode="&#x12a;" 
 />
    <glyph glyph-name="imacron" unicode="&#x12b;" 
 />
    <glyph glyph-name="Ibreve" unicode="&#x12c;" 
 />
    <glyph glyph-name="ibreve" unicode="&#x12d;" 
 />
    <glyph glyph-name="Iogonek" unicode="&#x12e;" 
 />
    <glyph glyph-name="iogonek" unicode="&#x12f;" 
 />
    <glyph glyph-name="IJ" unicode="&#x132;" 
 />
    <glyph glyph-name="ij" unicode="&#x133;" 
 />
    <glyph glyph-name="Jcircumflex" unicode="&#x134;" 
 />
    <glyph glyph-name="jcircumflex" unicode="&#x135;" 
 />
    <glyph glyph-name="Kcommaaccent" unicode="&#x136;" 
 />
    <glyph glyph-name="kcommaaccent" unicode="&#x137;" 
 />
    <glyph glyph-name="kgreenlandic" unicode="&#x138;" 
 />
    <glyph glyph-name="Lacute" unicode="&#x139;" 
 />
    <glyph glyph-name="lacute" unicode="&#x13a;" 
 />
    <glyph glyph-name="Lcommaaccent" unicode="&#x13b;" 
 />
    <glyph glyph-name="lcommaaccent" unicode="&#x13c;" 
 />
    <glyph glyph-name="Lcaron" unicode="&#x13d;" 
 />
    <glyph glyph-name="lcaron" unicode="&#x13e;" 
 />
    <glyph glyph-name="Ldot" unicode="&#x13f;" 
 />
    <glyph glyph-name="ldot" unicode="&#x140;" 
 />
    <glyph glyph-name="Nacute" unicode="&#x143;" 
 />
    <glyph glyph-name="nacute" unicode="&#x144;" 
 />
    <glyph glyph-name="Ncommaaccent" unicode="&#x145;" 
 />
    <glyph glyph-name="ncommaaccent" unicode="&#x146;" 
 />
    <glyph glyph-name="Ncaron" unicode="&#x147;" 
 />
    <glyph glyph-name="ncaron" unicode="&#x148;" 
 />
    <glyph glyph-name="napostrophe" unicode="&#x149;" 
 />
    <glyph glyph-name="Eng" unicode="&#x14a;" 
 />
    <glyph glyph-name="eng" unicode="&#x14b;" 
 />
    <glyph glyph-name="Omacron" unicode="&#x14c;" 
 />
    <glyph glyph-name="omacron" unicode="&#x14d;" 
 />
    <glyph glyph-name="Obreve" unicode="&#x14e;" 
 />
    <glyph glyph-name="obreve" unicode="&#x14f;" 
 />
    <glyph glyph-name="Ohungarumlaut" unicode="&#x150;" 
 />
    <glyph glyph-name="ohungarumlaut" unicode="&#x151;" 
 />
    <glyph glyph-name="Racute" unicode="&#x154;" 
 />
    <glyph glyph-name="racute" unicode="&#x155;" 
 />
    <glyph glyph-name="Rcommaaccent" unicode="&#x156;" 
 />
    <glyph glyph-name="rcommaaccent" unicode="&#x157;" 
 />
    <glyph glyph-name="Rcaron" unicode="&#x158;" 
 />
    <glyph glyph-name="rcaron" unicode="&#x159;" 
 />
    <glyph glyph-name="Sacute" unicode="&#x15a;" 
 />
    <glyph glyph-name="sacute" unicode="&#x15b;" 
 />
    <glyph glyph-name="Scircumflex" unicode="&#x15c;" 
 />
    <glyph glyph-name="scircumflex" unicode="&#x15d;" 
 />
    <glyph glyph-name="Tcommaaccent" unicode="&#x162;" 
 />
    <glyph glyph-name="tcommaaccent" unicode="&#x163;" 
 />
    <glyph glyph-name="Tcaron" unicode="&#x164;" 
 />
    <glyph glyph-name="tcaron" unicode="&#x165;" 
 />
    <glyph glyph-name="Tbar" unicode="&#x166;" 
 />
    <glyph glyph-name="tbar" unicode="&#x167;" 
 />
    <glyph glyph-name="Utilde" unicode="&#x168;" 
 />
    <glyph glyph-name="utilde" unicode="&#x169;" 
 />
    <glyph glyph-name="Umacron" unicode="&#x16a;" 
 />
    <glyph glyph-name="umacron" unicode="&#x16b;" 
 />
    <glyph glyph-name="Ubreve" unicode="&#x16c;" 
 />
    <glyph glyph-name="ubreve" unicode="&#x16d;" 
 />
    <glyph glyph-name="Uring" unicode="&#x16e;" 
 />
    <glyph glyph-name="uring" unicode="&#x16f;" 
 />
    <glyph glyph-name="Uhungarumlaut" unicode="&#x170;" 
 />
    <glyph glyph-name="uhungarumlaut" unicode="&#x171;" 
 />
    <glyph glyph-name="Uogonek" unicode="&#x172;" 
 />
    <glyph glyph-name="uogonek" unicode="&#x173;" 
 />
    <glyph glyph-name="Wcircumflex" unicode="&#x174;" 
 />
    <glyph glyph-name="wcircumflex" unicode="&#x175;" 
 />
    <glyph glyph-name="Ycircumflex" unicode="&#x176;" 
 />
    <glyph glyph-name="ycircumflex" unicode="&#x177;" 
 />
    <glyph glyph-name="Zacute" unicode="&#x179;" 
 />
    <glyph glyph-name="zacute" unicode="&#x17a;" 
 />
    <glyph glyph-name="Zdotaccent" unicode="&#x17b;" 
 />
    <glyph glyph-name="zdotaccent" unicode="&#x17c;" 
 />
    <glyph glyph-name="longs" unicode="&#x17f;" 
 />
    <glyph glyph-name="Aringacute" unicode="&#x1fa;" 
 />
    <glyph glyph-name="aringacute" unicode="&#x1fb;" 
 />
    <glyph glyph-name="AEacute" unicode="&#x1fc;" 
 />
    <glyph glyph-name="aeacute" unicode="&#x1fd;" 
 />
    <glyph glyph-name="Oslashacute" unicode="&#x1fe;" 
 />
    <glyph glyph-name="oslashacute" unicode="&#x1ff;" 
 />
    <glyph glyph-name="tonos" unicode="&#x384;" 
 />
    <glyph glyph-name="dieresistonos" unicode="&#x385;" 
 />
    <glyph glyph-name="Alphatonos" unicode="&#x386;" 
 />
    <glyph glyph-name="anoteleia" unicode="&#x387;" 
 />
    <glyph glyph-name="Epsilontonos" unicode="&#x388;" 
 />
    <glyph glyph-name="Etatonos" unicode="&#x389;" 
 />
    <glyph glyph-name="Iotatonos" unicode="&#x38a;" 
 />
    <glyph glyph-name="Omicrontonos" unicode="&#x38c;" 
 />
    <glyph glyph-name="Upsilontonos" unicode="&#x38e;" 
 />
    <glyph glyph-name="Omegatonos" unicode="&#x38f;" 
 />
    <glyph glyph-name="iotadieresistonos" unicode="&#x390;" 
 />
    <glyph glyph-name="Alpha" unicode="&#x391;" 
 />
    <glyph glyph-name="Beta" unicode="&#x392;" 
 />
    <glyph glyph-name="Gamma" unicode="&#x393;" 
 />
    <glyph glyph-name="uni0394" unicode="&#x394;" 
 />
    <glyph glyph-name="Epsilon" unicode="&#x395;" 
 />
    <glyph glyph-name="Zeta" unicode="&#x396;" 
 />
    <glyph glyph-name="Eta" unicode="&#x397;" 
 />
    <glyph glyph-name="Theta" unicode="&#x398;" 
 />
    <glyph glyph-name="Iota" unicode="&#x399;" 
 />
    <glyph glyph-name="Kappa" unicode="&#x39a;" 
 />
    <glyph glyph-name="Lambda" unicode="&#x39b;" 
 />
    <glyph glyph-name="Mu" unicode="&#x39c;" 
 />
    <glyph glyph-name="Nu" unicode="&#x39d;" 
 />
    <glyph glyph-name="Xi" unicode="&#x39e;" 
 />
    <glyph glyph-name="Omicron" unicode="&#x39f;" 
 />
    <glyph glyph-name="Pi" unicode="&#x3a0;" 
 />
    <glyph glyph-name="Rho" unicode="&#x3a1;" 
 />
    <glyph glyph-name="Sigma" unicode="&#x3a3;" 
 />
    <glyph glyph-name="Tau" unicode="&#x3a4;" 
 />
    <glyph glyph-name="Upsilon" unicode="&#x3a5;" 
 />
    <glyph glyph-name="Phi" unicode="&#x3a6;" 
 />
    <glyph glyph-name="Chi" unicode="&#x3a7;" 
 />
    <glyph glyph-name="Psi" unicode="&#x3a8;" 
 />
    <glyph glyph-name="uni03A9" unicode="&#x3a9;" 
 />
    <glyph glyph-name="Iotadieresis" unicode="&#x3aa;" 
 />
    <glyph glyph-name="Upsilondieresis" unicode="&#x3ab;" 
 />
    <glyph glyph-name="alphatonos" unicode="&#x3ac;" 
 />
    <glyph glyph-name="epsilontonos" unicode="&#x3ad;" 
 />
    <glyph glyph-name="etatonos" unicode="&#x3ae;" 
 />
    <glyph glyph-name="iotatonos" unicode="&#x3af;" 
 />
    <glyph glyph-name="upsilondieresistonos" unicode="&#x3b0;" 
 />
    <glyph glyph-name="alpha" unicode="&#x3b1;" 
 />
    <glyph glyph-name="beta" unicode="&#x3b2;" 
 />
    <glyph glyph-name="gamma" unicode="&#x3b3;" 
 />
    <glyph glyph-name="delta" unicode="&#x3b4;" 
 />
    <glyph glyph-name="epsilon" unicode="&#x3b5;" 
 />
    <glyph glyph-name="zeta" unicode="&#x3b6;" 
 />
    <glyph glyph-name="eta" unicode="&#x3b7;" 
 />
    <glyph glyph-name="theta" unicode="&#x3b8;" 
 />
    <glyph glyph-name="iota" unicode="&#x3b9;" 
 />
    <glyph glyph-name="kappa" unicode="&#x3ba;" 
 />
    <glyph glyph-name="lambda" unicode="&#x3bb;" 
 />
    <glyph glyph-name="uni03BC" unicode="&#x3bc;" 
 />
    <glyph glyph-name="nu" unicode="&#x3bd;" 
 />
    <glyph glyph-name="xi" unicode="&#x3be;" 
 />
    <glyph glyph-name="omicron" unicode="&#x3bf;" 
 />
    <glyph glyph-name="pi" unicode="&#x3c0;" 
 />
    <glyph glyph-name="rho" unicode="&#x3c1;" 
 />
    <glyph glyph-name="sigma1" unicode="&#x3c2;" 
 />
    <glyph glyph-name="sigma" unicode="&#x3c3;" 
 />
    <glyph glyph-name="tau" unicode="&#x3c4;" 
 />
    <glyph glyph-name="upsilon" unicode="&#x3c5;" 
 />
    <glyph glyph-name="phi" unicode="&#x3c6;" 
 />
    <glyph glyph-name="chi" unicode="&#x3c7;" 
 />
    <glyph glyph-name="psi" unicode="&#x3c8;" 
 />
    <glyph glyph-name="omega" unicode="&#x3c9;" 
 />
    <glyph glyph-name="iotadieresis" unicode="&#x3ca;" 
 />
    <glyph glyph-name="upsilondieresis" unicode="&#x3cb;" 
 />
    <glyph glyph-name="omicrontonos" unicode="&#x3cc;" 
 />
    <glyph glyph-name="upsilontonos" unicode="&#x3cd;" 
 />
    <glyph glyph-name="omegatonos" unicode="&#x3ce;" 
 />
    <glyph glyph-name="afii10023" unicode="&#x401;" 
 />
    <glyph glyph-name="afii10051" unicode="&#x402;" 
 />
    <glyph glyph-name="afii10052" unicode="&#x403;" 
 />
    <glyph glyph-name="afii10053" unicode="&#x404;" 
 />
    <glyph glyph-name="afii10054" unicode="&#x405;" 
 />
    <glyph glyph-name="afii10055" unicode="&#x406;" 
 />
    <glyph glyph-name="afii10056" unicode="&#x407;" 
 />
    <glyph glyph-name="afii10057" unicode="&#x408;" 
 />
    <glyph glyph-name="afii10058" unicode="&#x409;" 
 />
    <glyph glyph-name="afii10059" unicode="&#x40a;" 
 />
    <glyph glyph-name="afii10060" unicode="&#x40b;" 
 />
    <glyph glyph-name="afii10061" unicode="&#x40c;" 
 />
    <glyph glyph-name="afii10062" unicode="&#x40e;" 
 />
    <glyph glyph-name="afii10145" unicode="&#x40f;" 
 />
    <glyph glyph-name="afii10017" unicode="&#x410;" 
 />
    <glyph glyph-name="afii10018" unicode="&#x411;" 
 />
    <glyph glyph-name="afii10019" unicode="&#x412;" 
 />
    <glyph glyph-name="afii10020" unicode="&#x413;" 
 />
    <glyph glyph-name="afii10021" unicode="&#x414;" 
 />
    <glyph glyph-name="afii10022" unicode="&#x415;" 
 />
    <glyph glyph-name="afii10024" unicode="&#x416;" 
 />
    <glyph glyph-name="afii10025" unicode="&#x417;" 
 />
    <glyph glyph-name="afii10026" unicode="&#x418;" 
 />
    <glyph glyph-name="afii10027" unicode="&#x419;" 
 />
    <glyph glyph-name="afii10028" unicode="&#x41a;" 
 />
    <glyph glyph-name="afii10029" unicode="&#x41b;" 
 />
    <glyph glyph-name="afii10030" unicode="&#x41c;" 
 />
    <glyph glyph-name="afii10031" unicode="&#x41d;" 
 />
    <glyph glyph-name="afii10032" unicode="&#x41e;" 
 />
    <glyph glyph-name="afii10033" unicode="&#x41f;" 
 />
    <glyph glyph-name="afii10034" unicode="&#x420;" 
 />
    <glyph glyph-name="afii10035" unicode="&#x421;" 
 />
    <glyph glyph-name="afii10036" unicode="&#x422;" 
 />
    <glyph glyph-name="afii10037" unicode="&#x423;" 
 />
    <glyph glyph-name="afii10038" unicode="&#x424;" 
 />
    <glyph glyph-name="afii10039" unicode="&#x425;" 
 />
    <glyph glyph-name="afii10040" unicode="&#x426;" 
 />
    <glyph glyph-name="afii10041" unicode="&#x427;" 
 />
    <glyph glyph-name="afii10042" unicode="&#x428;" 
 />
    <glyph glyph-name="afii10043" unicode="&#x429;" 
 />
    <glyph glyph-name="afii10044" unicode="&#x42a;" 
 />
    <glyph glyph-name="afii10045" unicode="&#x42b;" 
 />
    <glyph glyph-name="afii10046" unicode="&#x42c;" 
 />
    <glyph glyph-name="afii10047" unicode="&#x42d;" 
 />
    <glyph glyph-name="afii10048" unicode="&#x42e;" 
 />
    <glyph glyph-name="afii10049" unicode="&#x42f;" 
 />
    <glyph glyph-name="afii10065" unicode="&#x430;" 
 />
    <glyph glyph-name="afii10066" unicode="&#x431;" 
 />
    <glyph glyph-name="afii10067" unicode="&#x432;" 
 />
    <glyph glyph-name="afii10068" unicode="&#x433;" 
 />
    <glyph glyph-name="afii10069" unicode="&#x434;" 
 />
    <glyph glyph-name="afii10070" unicode="&#x435;" 
 />
    <glyph glyph-name="afii10072" unicode="&#x436;" 
 />
    <glyph glyph-name="afii10073" unicode="&#x437;" 
 />
    <glyph glyph-name="afii10074" unicode="&#x438;" 
 />
    <glyph glyph-name="afii10075" unicode="&#x439;" 
 />
    <glyph glyph-name="afii10076" unicode="&#x43a;" 
 />
    <glyph glyph-name="afii10077" unicode="&#x43b;" 
 />
    <glyph glyph-name="afii10078" unicode="&#x43c;" 
 />
    <glyph glyph-name="afii10079" unicode="&#x43d;" 
 />
    <glyph glyph-name="afii10080" unicode="&#x43e;" 
 />
    <glyph glyph-name="afii10081" unicode="&#x43f;" 
 />
    <glyph glyph-name="afii10082" unicode="&#x440;" 
 />
    <glyph glyph-name="afii10083" unicode="&#x441;" 
 />
    <glyph glyph-name="afii10084" unicode="&#x442;" 
 />
    <glyph glyph-name="afii10085" unicode="&#x443;" 
 />
    <glyph glyph-name="afii10086" unicode="&#x444;" 
 />
    <glyph glyph-name="afii10087" unicode="&#x445;" 
 />
    <glyph glyph-name="afii10088" unicode="&#x446;" 
 />
    <glyph glyph-name="afii10089" unicode="&#x447;" 
 />
    <glyph glyph-name="afii10090" unicode="&#x448;" 
 />
    <glyph glyph-name="afii10091" unicode="&#x449;" 
 />
    <glyph glyph-name="afii10092" unicode="&#x44a;" 
 />
    <glyph glyph-name="afii10093" unicode="&#x44b;" 
 />
    <glyph glyph-name="afii10094" unicode="&#x44c;" 
 />
    <glyph glyph-name="afii10095" unicode="&#x44d;" 
 />
    <glyph glyph-name="afii10096" unicode="&#x44e;" 
 />
    <glyph glyph-name="afii10097" unicode="&#x44f;" 
 />
    <glyph glyph-name="afii10071" unicode="&#x451;" 
 />
    <glyph glyph-name="afii10099" unicode="&#x452;" 
 />
    <glyph glyph-name="afii10100" unicode="&#x453;" 
 />
    <glyph glyph-name="afii10101" unicode="&#x454;" 
 />
    <glyph glyph-name="afii10102" unicode="&#x455;" 
 />
    <glyph glyph-name="afii10103" unicode="&#x456;" 
 />
    <glyph glyph-name="afii10104" unicode="&#x457;" 
 />
    <glyph glyph-name="afii10105" unicode="&#x458;" 
 />
    <glyph glyph-name="afii10106" unicode="&#x459;" 
 />
    <glyph glyph-name="afii10107" unicode="&#x45a;" 
 />
    <glyph glyph-name="afii10108" unicode="&#x45b;" 
 />
    <glyph glyph-name="afii10109" unicode="&#x45c;" 
 />
    <glyph glyph-name="afii10110" unicode="&#x45e;" 
 />
    <glyph glyph-name="afii10193" unicode="&#x45f;" 
 />
    <glyph glyph-name="afii10050" unicode="&#x490;" 
 />
    <glyph glyph-name="afii10098" unicode="&#x491;" 
 />
    <glyph glyph-name="Wgrave" unicode="&#x1e80;" 
 />
    <glyph glyph-name="wgrave" unicode="&#x1e81;" 
 />
    <glyph glyph-name="Wacute" unicode="&#x1e82;" 
 />
    <glyph glyph-name="wacute" unicode="&#x1e83;" 
 />
    <glyph glyph-name="Wdieresis" unicode="&#x1e84;" 
 />
    <glyph glyph-name="wdieresis" unicode="&#x1e85;" 
 />
    <glyph glyph-name="Ygrave" unicode="&#x1ef2;" 
 />
    <glyph glyph-name="ygrave" unicode="&#x1ef3;" 
 />
    <glyph glyph-name="afii00208" unicode="&#x2015;" 
 />
    <glyph glyph-name="underscoredbl" unicode="&#x2017;" 
 />
    <glyph glyph-name="quotereversed" unicode="&#x201b;" 
 />
    <glyph glyph-name="minute" unicode="&#x2032;" 
 />
    <glyph glyph-name="second" unicode="&#x2033;" 
 />
    <glyph glyph-name="exclamdbl" unicode="&#x203c;" 
 />
    <glyph glyph-name="uni203E" unicode="&#x203e;" 
 />
    <glyph glyph-name="uni207F" unicode="&#x207f;" 
 />
    <glyph glyph-name="lira" unicode="&#x20a4;" 
 />
    <glyph glyph-name="peseta" unicode="&#x20a7;" 
 />
    <glyph glyph-name="afii61248" unicode="&#x2105;" 
 />
    <glyph glyph-name="afii61289" unicode="&#x2113;" 
 />
    <glyph glyph-name="afii61352" unicode="&#x2116;" 
 />
    <glyph glyph-name="estimated" unicode="&#x212e;" 
 />
    <glyph glyph-name="oneeighth" unicode="&#x215b;" 
 />
    <glyph glyph-name="threeeighths" unicode="&#x215c;" 
 />
    <glyph glyph-name="fiveeighths" unicode="&#x215d;" 
 />
    <glyph glyph-name="seveneighths" unicode="&#x215e;" 
 />
    <glyph glyph-name="uniF004" unicode="&#xf004;" 
 />
    <glyph glyph-name="uniF005" unicode="&#xf005;" 
 />
    </font>
</defs>
</svg>
